<svg width="32" height="32" viewBox="0 0 32 32" fill="none" xmlns="http://www.w3.org/2000/svg">
<rect width="32" height="32" rx="16" fill="#5D74A7"/>
<path d="M22 16.998H17V21.998C17 22.2632 16.8946 22.5176 16.7071 22.7051C16.5196 22.8926 16.2652 22.998 16 22.998C15.7348 22.998 15.4804 22.8926 15.2929 22.7051C15.1054 22.5176 15 22.2632 15 21.998V16.998H10C9.73478 16.998 9.48043 16.8926 9.29289 16.7051C9.10536 16.5176 9 16.2632 9 15.998C9 15.7328 9.10536 15.4784 9.29289 15.2909C9.48043 15.1033 9.73478 14.998 10 14.998H15V9.99799C15 9.73277 15.1054 9.47842 15.2929 9.29088C15.4804 9.10334 15.7348 8.99799 16 8.99799C16.2652 8.99799 16.5196 9.10334 16.7071 9.29088C16.8946 9.47842 17 9.73277 17 9.99799V14.998H22C22.2652 14.998 22.5196 15.1033 22.7071 15.2909C22.8946 15.4784 23 15.7328 23 15.998C23 16.2632 22.8946 16.5176 22.7071 16.7051C22.5196 16.8926 22.2652 16.998 22 16.998Z" fill="white"/>
</svg>
